<svg height="442pt" viewBox="0 -3 442.02924 442" width="442pt" xmlns="http://www.w3.org/2000/svg"><path d="m384.027344 160.015625c-32.03125 0-58 25.964844-58 58 0 32.03125 25.96875 58 58 58 32.035156 0 58-25.96875 58-58-.035156-32.019531-25.980469-57.964844-58-58zm19.675781 67.773437c2.734375 2.734376 2.734375 7.164063 0 9.898438s-7.167969 2.734375-9.898437 0l-9.777344-9.773438-9.773438 9.777344c-2.734375 2.734375-7.164062 2.734375-9.898437 0s-2.734375-7.167968 0-9.902344l9.773437-9.773437-9.773437-9.773437c-2.734375-2.734376-2.734375-7.167969 0-9.902344s7.164062-2.734375 9.898437 0l9.773438 9.773437 9.777344-9.773437c2.734374-2.734375 7.167968-2.734375 9.902343 0s2.734375 7.164062 0 9.898437l-9.777343 9.777344zm0 0"/><path d="m384.027344.015625c-32.03125 0-58 25.964844-58 58 0 32.03125 25.96875 58 58 58 32.035156 0 58-25.96875 58-58-.035156-32.019531-25.980469-57.9648438-58-58zm29.101562 48.550781-31.898437 29.222656c-2.84375 2.605469-7.261719 2.417969-9.875-.417968l-16.851563-18.269532c-2.519531-2.855468-2.292968-7.199218.503906-9.777343 2.800782-2.582031 7.148438-2.453125 9.789063.289062l12.117187 13.140625 26.757813-24.507812c2.859375-2.542969 7.230469-2.320313 9.8125.5 2.585937 2.820312 2.425781 7.195312-.355469 9.820312zm0 0"/><path d="m384.027344 320.015625c-32.03125 0-58 25.964844-58 58 0 32.03125 25.96875 58 58 58 32.035156 0 58-25.96875 58-58-.035156-32.019531-25.980469-57.964844-58-58zm29.101562 48.550781-31.898437 29.222656c-2.84375 2.605469-7.261719 2.417969-9.875-.417968l-16.847657-18.269532c-2.578124-2.847656-2.382812-7.238281.441407-9.84375 2.824219-2.605468 7.21875-2.445312 9.847656.351563l12.121094 13.140625 26.757812-24.507812c2.851563-2.613282 7.277344-2.417969 9.890625.433593 2.609375 2.851563 2.414063 7.28125-.433594 9.890625zm0 0"/><path d="m269.820312 56.332031v154.664063h-46.097656l18.066406-18.0625c2.734376-2.734375 2.734376-7.167969 0-9.902344-2.734374-2.734375-7.167968-2.734375-9.902343 0l-30 30c-2.734375 2.734375-2.734375 7.167969 0 9.902344l30 30c2.734375 2.734375 7.167969 2.734375 9.902343 0 2.734376-2.734375 2.734376-7.167969 0-9.902344l-18.039062-18.03125h46.070312v154.664062c0 3.867188 3.136719 7 7 7h43.527344v-14h-36.527344v-147.667968h32.964844v-14h-32.964844v-147.664063h36.527344v-14h-43.527344c-3.863281 0-7 3.132813-7 7zm0 0"/><path d="m95.75 144.761719c-41.011719 1.230469-73.96875 34.191406-75.195312 75.199219-.445313 19.902343 6.996093 39.171874 20.699218 53.609374 9.347656 9.855469 14.503906 22.953126 14.386719 36.535157h-.820313c-3.867187 0-7 3.136719-7 7 0 3.867187 3.132813 7 7 7h84.429688c3.863281 0 7-3.132813 7-7 0-3.863281-3.136719-7-7-7h-1.710938c-.273437-13.398438 4.75-25.839844 14.75-36.308594 13.386719-14.230469 20.867188-33.015625 20.929688-52.554687.011719-20.457032-8.179688-40.070313-22.738281-54.441407-14.558594-14.375-34.273438-22.3125-54.730469-22.035156zm0 0"/><path d="m122.828125 339.414062h-51.597656c-3.867188 0-7 3.132813-7 7 0 3.867188 3.132812 7 7 7h51.597656c3.867187 0 7-3.132812 7-7 0-3.867187-3.132813-7-7-7zm0 0"/><path d="m95.273438 125.339844c3.867187 0 7-3.132813 7-7v-28.726563c0-3.863281-3.132813-7-7-7-3.863282 0-7 3.136719-7 7v28.730469c.003906 3.867188 3.136718 6.996094 7 6.996094zm0 0"/><path d="m182.230469 124.097656-21.109375 19.9375c-2.808594 2.652344-2.9375 7.082032-.28125 9.894532 2.65625 2.808593 7.085937 2.9375 9.894531.28125l21.109375-19.933594c2.808594-2.65625 2.9375-7.085938.28125-9.898438-2.65625-2.808594-7.085938-2.933594-9.894531-.28125zm0 0"/><path d="m27.261719 153.484375c2.820312 0 5.367187-1.695313 6.457031-4.300781 1.089844-2.601563.507812-5.605469-1.472656-7.613282l-20.226563-20.523437c-1.75-1.800781-4.335937-2.523437-6.765625-1.898437-2.433594.628906-4.34375 2.511718-5.007812 4.933593-.660156 2.425781.027344 5.019531 1.804687 6.792969l20.226563 20.523438c1.3125 1.335937 3.109375 2.085937 4.984375 2.085937zm0 0"/></svg>